<?xml version="1.0" encoding="utf-8"?>
<svg viewBox="9.4763 94.9574 947.4 254.1426" xmlns="http://www.w3.org/2000/svg">
  <g transform="matrix(0.10000000149011612, 0, 0, -0.10000000149011612, -13.523704528808594, 412.9573974609375)" fill="#ffffff" stroke="none">
    <path d="M230 1930 l0 -1250 563 0 c622 0 681 4 852 61 242 80 417 245 490 460 37 111 46 273 20 378 -21 87 -70 172 -134 232 -56 52 -179 119 -264 144 -32 9 -57 18 -55 20 2 2 44 24 93 49 216 108 315 263 315 490 0 328 -168 531 -512 620 -160 41 -243 46 -820 46 l-548 0 0 -1250z m1125 797 c63 -21 119 -67 147 -120 17 -32 23 -65 26 -140 5 -121 -8 -173 -59 -231 -74 -84 -168 -106 -461 -106 l-198 0 0 311 0 311 248 -4 c193 -4 258 -8 297 -21z m73 -1014 c75 -30 116 -65 143 -120 20 -41 24 -63 24 -148 0 -83 -4 -109 -23 -150 -31 -68 -72 -108 -146 -142 l-61 -28 -277 -3 -278 -3 0 311 0 312 283 -4 c260 -3 286 -5 335 -25z"/>
    <path d="M7630 1930 l0 -1250 295 0 295 0 0 1250 0 1250 -295 0 -295 0 0 -1250z"/>
    <path d="M8890 2973 c-48 -18 -58 -43 -115 -279 l-57 -233 -36 -7 c-21 -3 -84 -16 -142 -28 l-105 -21 -3 -101 c-5 -180 23 -214 176 -214 l82 0 0 -507 c0 -413 3 -520 15 -571 39 -164 142 -276 305 -333 92 -32 307 -32 425 0 86 23 205 76 244 108 l25 20 -75 119 c-40 65 -84 131 -97 146 -28 33 -67 37 -115 11 -45 -23 -120 -22 -148 3 -49 44 -49 42 -49 539 l0 465 215 0 215 0 0 185 0 185 -215 0 -215 0 0 260 0 260 -157 -1 c-87 0 -165 -3 -173 -6z"/>
    <path d="M3095 2476 c-358 -58 -616 -285 -706 -621 -30 -113 -38 -364 -15 -489 76 -400 350 -655 760 -706 356 -45 693 84 871 334 154 218 209 521 149 815 -70 338 -314 583 -657 657 -98 21 -302 27 -402 10z m343 -421 c86 -47 137 -123 169 -252 23 -95 23 -371 0 -466 -32 -129 -83 -205 -169 -252 -45 -25 -67 -30 -144 -33 -121 -6 -185 13 -251 72 -93 84 -134 221 -134 446 0 229 39 360 133 445 67 60 118 75 243 72 89 -2 106 -6 153 -32z"/>
  </g>
  <rect x="417.103" y="133.848" width="215.252" height="215.252" style="fill: rgba(246, 197, 101);" rx="68.919" ry="68.919" transform="matrix(0.9999999999999999, 0, 0, 0.9999999999999999, 0, -5.684341886080802e-14)"/>
  <rect x="407.663" y="94.688" width="33.043" height="175.289" style="fill: rgb(255, 255, 255); transform-origin: 424.184462px 182.332516px;" transform="matrix(0.70601695776, -0.708195090294, 0.708195090294, 0.70601695776, 99.891788094756, 58.978215341029)" rx="16.521" ry="16.521"/>
  <rect x="407.663" y="94.688" width="33.043" height="175.289" style="fill: rgb(255, 255, 255); transform-origin: 424.078137px 182.250033px;" transform="matrix(-0.70391201973, -0.710286855698, 0.710286855698, -0.70391201973, 99.845272437141, 59.150735506029)" rx="16.521" ry="16.521"/>
</svg>